<?xml version="1.0" encoding="utf-8" standalone="no"?>
<!DOCTYPE svg PUBLIC "-//W3C//DTD SVG 1.1//EN"
  "http://www.w3.org/Graphics/SVG/1.1/DTD/svg11.dtd">
<!-- Created with matplotlib (https://matplotlib.org/) -->
<svg height="381.369375pt" version="1.1" viewBox="0 0 578.16 381.369375" width="578.16pt" xmlns="http://www.w3.org/2000/svg" xmlns:xlink="http://www.w3.org/1999/xlink">
 <defs>
  <style type="text/css">
*{stroke-linecap:butt;stroke-linejoin:round;}
  </style>
 </defs>
 <g id="figure_1">
  <g id="patch_1">
   <path d="M 0 381.369375 
L 578.16 381.369375 
L 578.16 0 
L 0 0 
z
" style="fill:none;"/>
  </g>
  <g id="axes_1">
   <g id="LineCollection_1">
    <path clip-path="url(#p738d6d2f88)" d="M 289.08 148.271629 
L 353.143636 148.271629 
" style="fill:none;stroke:#ff0000;stroke-dasharray:14.8,6.4;stroke-dashoffset:0;stroke-width:4;"/>
   </g>
   <g id="LineCollection_2">
    <path clip-path="url(#p738d6d2f88)" d="M 289.08 341.214545 
L 289.08 23.105455 
" style="fill:none;stroke:#0000ff;stroke-dasharray:14.8,6.4;stroke-dashoffset:0;stroke-width:4;"/>
   </g>
   <g id="LineCollection_3">
    <path clip-path="url(#p738d6d2f88)" d="M 32.825455 341.214545 
L 545.334545 341.214545 
" style="fill:none;stroke:#008000;stroke-width:4;"/>
   </g>
   <g id="line2d_1">
    <path clip-path="url(#p738d6d2f88)" d="M 32.825455 341.107832 
L 52.557055 340.865669 
L 65.497909 340.493934 
L 75.363709 339.995648 
L 83.499791 339.367562 
L 90.482727 338.609645 
L 96.632836 337.722854 
L 102.206373 336.697086 
L 107.2674 335.544073 
L 112.008109 334.238052 
L 116.4285 332.792254 
L 120.6567 331.174578 
L 124.628645 329.41985 
L 128.472464 327.480609 
L 132.188155 325.357818 
L 135.775718 323.055481 
L 139.299218 320.532367 
L 142.758655 317.783394 
L 146.218091 314.746336 
L 149.613464 311.467498 
L 153.008836 307.876262 
L 156.404209 303.956278 
L 159.799582 299.692173 
L 163.194955 295.069856 
L 166.654391 289.978983 
L 170.113827 284.492107 
L 173.637327 278.48752 
L 177.224891 271.935923 
L 180.940582 264.681518 
L 184.7844 256.676441 
L 188.756345 247.877566 
L 192.856418 238.249211 
L 197.212745 227.440278 
L 201.825327 215.392021 
L 206.886355 201.535134 
L 212.588018 185.258162 
L 219.763145 164.058248 
L 238.918173 107.090782 
L 244.107327 92.577949 
L 248.527718 80.858558 
L 252.4356 71.111813 
L 255.9591 62.900572 
L 259.226345 55.836043 
L 262.237336 49.838735 
L 265.056136 44.704269 
L 267.682745 40.363169 
L 270.181227 36.650353 
L 272.551582 33.518516 
L 274.793809 30.917554 
L 276.907909 28.795814 
L 278.957945 27.051414 
L 280.879855 25.700759 
L 282.7377 24.660535 
L 284.531482 23.906239 
L 286.2612 23.413235 
L 287.990918 23.151418 
L 289.656573 23.118338 
L 291.322227 23.300237 
L 293.051945 23.716273 
L 294.781664 24.362834 
L 296.575445 25.275318 
L 298.433291 26.477858 
L 300.3552 27.994371 
L 302.341173 29.848294 
L 304.455273 32.136328 
L 306.633436 34.825288 
L 308.939727 38.029183 
L 311.374145 41.79601 
L 314.000755 46.285773 
L 316.755491 51.446031 
L 319.702418 57.447858 
L 322.9056 64.495594 
L 326.365036 72.665818 
L 330.144791 82.181957 
L 334.372991 93.452231 
L 339.241827 107.090782 
L 345.263809 124.662724 
L 355.3218 154.829182 
L 364.995409 183.579602 
L 371.209582 201.35588 
L 376.526864 215.905647 
L 381.331636 228.417023 
L 385.816091 239.482294 
L 390.044291 249.332432 
L 394.0803 258.181898 
L 397.988182 266.221575 
L 401.767936 273.49642 
L 405.483627 280.16719 
L 409.071191 286.1597 
L 412.594691 291.623892 
L 416.118191 296.680682 
L 419.577627 301.261301 
L 423.037064 305.47514 
L 426.4965 309.337637 
L 429.955936 312.865485 
L 433.415373 316.076313 
L 436.874809 318.988388 
L 440.398309 321.666557 
L 443.985873 324.115334 
L 447.6375 326.341034 
L 451.417255 328.384158 
L 455.325136 330.242158 
L 459.361145 331.915494 
L 463.589345 333.428708 
L 468.0738 334.796097 
L 472.878573 336.024129 
L 478.003664 337.101787 
L 483.5772 338.044499 
L 489.727309 338.856855 
L 496.646182 339.543258 
L 504.654136 340.10851 
L 514.199618 340.552025 
L 526.243582 340.878332 
L 542.900127 341.090403 
L 545.270482 341.107404 
L 545.270482 341.107404 
" style="fill:none;stroke:#000000;stroke-width:4;"/>
   </g>
  </g>
 </g>
 <defs>
  <clipPath id="p738d6d2f88">
   <rect height="349.92" width="563.76" x="7.2" y="7.2"/>
  </clipPath>
 </defs>
</svg>
